<?xml version="1.0" standalone="no"?>
<!DOCTYPE svg PUBLIC "-//W3C//DTD SVG 20010904//EN"
 "http://www.w3.org/TR/2001/REC-SVG-20010904/DTD/svg10.dtd">
<svg version="1.0" xmlns="http://www.w3.org/2000/svg"
 width="1021.000000pt" height="1021.000000pt" viewBox="0 0 1021.000000 1021.000000"
 preserveAspectRatio="xMidYMid meet">
<metadata>
Created by potrace 1.14, written by Peter Selinger 2001-2017
</metadata>
<g transform="translate(0.000000,1021.000000) scale(0.100000,-0.100000)"
fill="#000000" stroke="none">
<path d="M1448 10145 c-2 -1 -41 -6 -88 -9 -47 -4 -98 -8 -115 -10 -16 -2 -57
-7 -90 -11 -85 -11 -85 -11 -135 -20 -25 -5 -48 -9 -52 -9 -19 -2 -70 -51 -81
-79 -11 -26 -13 -223 -13 -1007 l1 -975 50 -2 c84 -3 150 -9 160 -14 6 -3 25
-5 44 -5 l34 1 1 909 c1 901 1 909 21 912 11 2 45 5 76 8 l56 5 -1 -917 c-1
-504 2 -927 6 -940 4 -12 11 -21 15 -20 11 3 145 -23 158 -30 5 -3 16 -7 25
-8 8 0 31 -4 51 -8 l36 -8 -1 974 0 973 160 0 c87 1 163 -1 168 -4 6 -2 28 -6
50 -7 78 -5 192 -19 236 -29 14 -3 36 -7 50 -10 14 -3 36 -7 50 -10 14 -3 36
-8 50 -11 14 -3 45 -12 70 -21 25 -8 52 -16 60 -18 8 -2 16 -4 18 -5 1 -2 5
-3 10 -5 15 -4 49 -19 129 -55 155 -72 288 -177 376 -296 20 -29 37 -56 37
-62 0 -6 3 -12 8 -14 24 -10 95 -211 108 -307 9 -65 18 -223 15 -241 -1 -3 -3
-38 -6 -77 -4 -74 -32 -204 -59 -280 -15 -44 -67 -155 -76 -163 -3 -3 -18 -25
-34 -50 -38 -60 -157 -177 -231 -226 -99 -67 -256 -135 -345 -150 -14 -3 -34
-8 -45 -11 -11 -4 -27 -7 -35 -8 -8 -1 -33 -5 -55 -8 -149 -23 -337 -24 -520
-2 -69 9 -129 17 -145 20 -8 2 -60 13 -115 24 -55 12 -140 30 -190 41 -49 11
-110 23 -135 26 -66 8 -89 12 -99 18 -5 4 -12 2 -16 -4 -4 -6 -12 -7 -18 -3
-7 4 -23 8 -37 10 -58 5 -268 4 -300 -1 -31 -5 -83 -13 -130 -20 -29 -4 -76
-18 -135 -39 -329 -116 -520 -441 -455 -777 19 -98 73 -233 104 -259 9 -7 16
-18 16 -23 0 -12 80 -92 110 -110 82 -48 190 6 208 104 10 51 -1 82 -48 133
-86 94 -126 224 -106 345 18 101 43 149 111 215 106 102 254 148 476 147 85 0
205 -8 244 -16 11 -3 67 -14 125 -26 58 -12 121 -25 140 -30 103 -23 285 -56
365 -65 156 -18 467 -21 505 -5 3 1 13 2 22 1 15 -2 132 18 203 33 154 35 312
102 452 192 98 63 250 211 316 306 48 71 140 250 140 274 0 8 4 14 9 14 4 0 7
3 7 8 -1 4 0 9 1 12 1 3 4 14 6 25 8 34 12 50 14 50 2 0 7 22 15 60 3 17 8 37
10 45 4 13 10 57 21 145 8 75 2 307 -11 375 -2 14 -7 40 -9 59 -3 18 -8 41
-11 51 -3 10 -7 27 -10 37 -14 71 -94 261 -122 291 -7 7 -13 19 -13 27 0 7 -4
15 -8 17 -5 2 -22 23 -39 48 -57 82 -193 213 -288 275 -109 71 -257 142 -390
186 -34 11 -31 11 -140 40 -78 20 -94 24 -145 34 -14 3 -36 7 -49 10 -14 2
-45 7 -70 10 -25 3 -64 8 -86 11 -101 13 -156 16 -392 19 -139 1 -253 1 -255
0z"/>
<path d="M9365 10134 c-16 -8 -43 -30 -59 -47 -79 -87 -284 -310 -346 -376
-19 -21 -73 -80 -120 -131 -47 -51 -96 -105 -110 -120 -14 -15 -63 -69 -110
-120 -109 -119 -126 -137 -240 -260 -52 -57 -102 -111 -111 -121 -9 -10 -56
-62 -105 -115 -49 -53 -102 -112 -119 -130 -16 -18 -68 -74 -115 -125 -47 -51
-96 -104 -110 -120 -43 -47 -202 -220 -261 -283 -31 -34 -67 -73 -80 -87 -43
-48 -173 -190 -209 -228 -19 -20 -62 -67 -95 -103 -169 -184 -233 -254 -267
-292 l-38 -41 0 60 c0 33 -1 547 -1 1143 -1 628 -5 1082 -10 1082 -5 0 -9 6
-9 13 0 32 -77 78 -130 77 -46 0 -114 -41 -126 -75 -10 -31 -11 -35 -13 -37
-2 -2 -3 -1052 -3 -2333 -1 -2209 0 -2333 17 -2368 25 -52 66 -79 123 -80 61
-1 107 26 132 78 18 38 19 66 19 605 0 311 0 583 1 605 0 33 9 49 48 91 26 29
76 85 112 125 68 76 163 180 193 211 9 10 17 23 17 29 0 5 5 7 10 4 6 -3 10
-3 10 2 0 4 18 28 41 53 54 60 122 135 189 211 30 34 69 76 85 94 17 18 58 64
92 102 34 38 74 83 90 100 15 17 57 63 93 103 87 96 94 104 177 196 40 44 82
91 93 104 11 13 53 60 93 104 40 44 81 89 92 102 11 12 51 56 89 99 39 42 77
85 86 95 29 34 164 183 200 221 19 21 57 62 83 93 55 62 63 71 173 192 45 49
94 104 110 122 16 18 47 53 69 76 22 24 66 72 97 107 31 35 71 79 87 98 17 19
31 38 31 43 0 4 7 8 15 8 8 0 15 4 15 8 0 4 15 24 33 44 17 20 61 69 97 108
36 40 76 85 90 100 14 15 54 60 90 100 36 40 79 88 95 106 17 17 59 65 95 105
36 40 70 77 75 83 6 6 46 51 90 101 44 49 89 99 100 111 67 71 75 84 82 139 6
43 -34 114 -77 137 -32 16 -65 18 -385 18 -297 0 -355 -2 -380 -16z m365 -280
c0 -3 -6 -11 -12 -18 -7 -8 -47 -51 -89 -97 -42 -46 -101 -112 -133 -147 -31
-34 -64 -72 -74 -83 -9 -11 -30 -35 -47 -53 -70 -75 -281 -309 -315 -349 -8
-10 -28 -33 -45 -50 -16 -18 -68 -75 -115 -127 -114 -125 -115 -127 -190 -211
-36 -40 -76 -85 -90 -99 -14 -15 -50 -55 -80 -89 -30 -35 -74 -84 -98 -110
-67 -73 -92 -101 -172 -191 -41 -47 -84 -94 -95 -106 -11 -11 -48 -52 -81 -90
-34 -38 -73 -81 -85 -95 -13 -14 -58 -63 -99 -109 -41 -46 -91 -100 -110 -121
-31 -33 -116 -128 -159 -178 -9 -10 -52 -58 -96 -106 -97 -106 -103 -113 -185
-205 -36 -40 -76 -85 -90 -100 -14 -14 -59 -64 -100 -110 -41 -46 -86 -96
-100 -111 -14 -16 -52 -58 -85 -95 -85 -95 -115 -127 -115 -123 -1 2 -1 76 -2
163 l0 159 63 70 c35 39 84 92 109 118 25 27 77 83 115 125 39 42 84 91 100
109 17 18 64 70 105 115 41 46 91 100 110 120 19 21 76 82 125 135 50 54 101
110 115 125 14 15 49 54 79 86 137 150 239 261 274 297 20 21 37 40 37 42 0 3
19 24 43 48 23 24 80 86 127 137 47 51 99 107 115 125 17 17 66 71 110 120 44
48 96 104 115 125 19 20 71 77 115 125 44 49 94 103 110 121 17 17 68 73 115
124 47 51 101 109 120 130 19 21 71 78 115 126 44 48 94 102 110 120 17 18 68
73 114 123 l84 91 118 0 c66 0 119 -3 119 -6z"/>
<path d="M5066 9813 c-1 -1 -24 -5 -51 -8 -28 -3 -63 -11 -80 -17 -65 -23
-165 -71 -165 -79 0 -5 -6 -9 -13 -9 -15 0 -127 -110 -158 -155 -126 -185
-144 -439 -45 -634 38 -75 162 -220 188 -221 4 0 13 -6 21 -14 18 -18 123 -71
162 -81 17 -5 35 -9 40 -11 6 -1 28 -5 50 -9 22 -4 43 -9 48 -12 4 -2 7 1 7 7
0 7 6 8 18 2 26 -13 121 -3 207 22 57 16 165 73 182 95 7 9 13 12 13 7 0 -18
123 121 157 178 19 34 36 66 38 71 1 6 7 22 13 38 7 15 14 38 16 50 3 12 8 33
11 47 10 44 8 194 -4 240 -26 100 -62 178 -111 243 -57 76 -214 197 -256 197
-7 0 -14 4 -14 8 0 5 -6 9 -12 10 -7 0 -35 7 -63 14 -27 8 -60 13 -72 12 -13
-1 -23 1 -23 5 0 5 -98 9 -104 4z"/>
<path d="M5047 7805 c-15 -8 -45 -32 -65 -53 -20 -22 -98 -104 -172 -182 -74
-79 -155 -164 -180 -190 -40 -41 -210 -221 -362 -381 -106 -113 -305 -322
-363 -383 -33 -34 -123 -129 -200 -210 -191 -201 -220 -233 -372 -392 -72 -77
-155 -164 -185 -195 -29 -31 -114 -121 -188 -199 -74 -78 -140 -148 -146 -154
-30 -32 -36 -102 -14 -156 10 -24 92 -85 159 -118 14 -6 44 -23 66 -35 22 -13
63 -36 90 -52 28 -15 55 -31 60 -35 6 -4 35 -21 65 -37 111 -60 405 -227 410
-233 3 -3 23 -14 45 -25 22 -11 42 -22 45 -25 3 -3 19 -12 35 -20 17 -8 58
-32 93 -52 34 -21 67 -38 72 -38 6 0 10 -5 10 -10 0 -6 3 -9 8 -8 4 2 23 -7
42 -18 19 -12 109 -63 200 -114 172 -97 272 -154 353 -202 26 -15 49 -28 52
-28 2 0 42 -22 89 -50 47 -28 89 -50 95 -50 6 0 11 -4 11 -9 0 -5 11 -12 25
-15 14 -4 25 -11 25 -16 0 -6 9 -10 20 -10 11 0 20 -4 20 -10 0 -5 11 -12 25
-16 53 -13 50 95 51 -1833 1 -1215 5 -1804 12 -1821 30 -74 105 -105 191 -79
25 7 61 46 75 80 11 29 13 334 12 1896 l-1 1862 -21 28 c-19 26 -119 94 -189
128 -16 8 -48 25 -70 38 -22 13 -62 36 -89 52 -28 15 -72 41 -98 56 -27 16
-51 29 -53 29 -2 0 -49 27 -105 60 -56 33 -103 60 -105 60 -5 0 -119 65 -155
88 -14 9 -27 17 -30 17 -5 0 -61 32 -213 121 -32 19 -63 34 -68 34 -5 0 -9 5
-9 12 0 6 -3 8 -6 5 -4 -4 -19 2 -33 11 -14 10 -66 41 -116 69 -49 28 -173 98
-275 156 -102 57 -203 115 -225 127 -22 12 -70 40 -107 61 -36 22 -71 39 -77
39 -6 0 -11 4 -11 9 0 5 -9 11 -21 14 -19 5 -18 7 13 40 31 33 216 227 342
360 62 66 299 315 381 402 28 28 113 119 190 200 77 82 163 172 190 200 54 56
303 318 404 425 33 36 61 68 61 72 0 5 7 8 15 8 8 0 15 4 15 9 0 6 40 51 88
101 l88 91 -1 -1128 c0 -823 3 -1136 11 -1161 21 -60 86 -98 159 -94 45 3 46
3 98 -1 26 -2 50 1 53 5 3 5 11 5 17 1 9 -7 190 -8 352 -3 6 0 36 -1 68 -3 31
-1 57 2 57 7 0 4 6 4 13 -2 15 -13 79 7 108 34 73 66 54 191 -36 233 -36 18
-65 20 -295 19 -140 0 -268 1 -285 1 l-30 1 0 1253 0 1252 -23 30 c-50 63
-122 83 -185 50z"/>
<path d="M899 7542 l-26 -3 0 -1257 c0 -1388 -4 -1295 65 -1342 l36 -25 266 0
266 0 37 25 c20 13 42 36 49 50 10 20 13 274 14 1223 0 658 0 1197 0 1197 -1
1 -19 3 -41 6 -22 3 -85 16 -139 30 -54 13 -101 22 -104 19 -3 -3 -6 -512 -6
-1133 l-1 -1127 -75 0 -75 0 -2 1130 c-1 622 -2 1142 -2 1156 -1 23 -7 28 -43
36 -24 6 -61 11 -83 12 -93 6 -111 6 -136 3z"/>
<path d="M8235 7472 c-32 -7 -74 -41 -91 -75 -46 -88 16 -198 119 -211 12 -2
42 -9 67 -16 51 -15 44 -14 90 -24 19 -5 41 -12 50 -16 8 -5 53 -23 100 -41
125 -49 279 -130 388 -205 35 -24 67 -44 72 -44 4 0 10 -3 12 -7 2 -5 26 -26
53 -48 131 -103 250 -224 350 -355 28 -36 53 -66 58 -68 4 -2 7 -7 7 -11 0 -5
20 -39 45 -77 92 -139 221 -424 250 -554 2 -8 4 -16 5 -17 2 -2 3 -6 5 -10 1
-5 5 -20 9 -34 4 -14 9 -34 11 -45 2 -10 4 -19 5 -19 2 0 10 -35 15 -69 2 -15
7 -35 9 -45 3 -9 8 -32 11 -51 3 -19 8 -48 11 -65 3 -16 7 -46 9 -65 2 -19 7
-60 11 -90 3 -30 8 -77 9 -105 2 -27 4 -50 5 -50 1 0 3 -12 5 -27 6 -45 48
-96 88 -104 4 -1 8 -2 10 -4 10 -8 49 -7 82 2 25 6 51 23 70 46 28 33 30 41
29 111 0 68 -11 207 -19 250 -5 29 -16 95 -20 126 -2 17 -7 41 -10 55 -3 14
-8 41 -12 60 -4 19 -8 37 -8 40 -1 3 -5 19 -9 35 -42 176 -92 325 -158 470
-27 61 -52 118 -55 128 -3 9 -9 17 -14 17 -5 0 -9 8 -9 17 0 9 -6 24 -14 32
-7 9 -25 37 -39 62 -42 77 -52 94 -58 99 -3 3 -20 28 -39 55 -106 157 -340
404 -470 495 -19 14 -37 28 -40 31 -4 6 -182 124 -235 156 -34 21 -269 137
-281 139 -6 1 -27 9 -45 17 -19 8 -50 20 -69 27 -19 7 -44 15 -55 20 -115 43
-260 73 -310 62z"/>
<path d="M1926 4293 c-2 -2 -28 -6 -57 -9 -70 -6 -199 -30 -269 -50 -51 -14
-81 -22 -105 -28 -24 -6 -93 -29 -120 -40 -16 -7 -57 -24 -90 -36 -33 -13 -63
-29 -67 -34 -4 -6 -8 -8 -8 -5 0 3 -28 -9 -62 -28 -35 -18 -71 -36 -80 -39
-10 -4 -18 -10 -18 -15 0 -5 -5 -9 -11 -9 -10 0 -176 -105 -189 -119 -3 -3
-27 -24 -55 -46 -115 -91 -235 -211 -330 -330 -22 -27 -42 -52 -45 -55 -8 -7
-113 -167 -138 -210 -23 -41 -86 -163 -87 -170 0 -3 -6 -15 -13 -28 -14 -25
-79 -197 -94 -251 -27 -94 -65 -279 -74 -362 -10 -87 -11 -397 -2 -485 17
-152 74 -376 138 -539 50 -127 140 -300 196 -376 19 -26 34 -50 34 -54 0 -3 6
-12 13 -20 6 -7 23 -28 37 -46 100 -133 236 -272 365 -374 28 -22 52 -42 55
-45 3 -3 28 -21 55 -39 28 -19 53 -40 57 -45 4 -6 8 -8 8 -3 0 6 75 -38 90
-53 3 -3 12 -6 20 -8 8 -2 17 -8 18 -13 2 -5 12 -9 23 -9 10 0 19 -3 19 -8 0
-4 15 -13 33 -21 17 -8 57 -26 87 -40 30 -13 60 -26 65 -28 6 -2 69 -23 140
-47 72 -24 144 -46 160 -49 17 -3 41 -8 55 -11 14 -3 36 -8 50 -10 46 -7 95
-16 125 -22 51 -10 427 -12 490 -3 33 5 83 12 110 15 28 4 54 9 59 12 5 3 19
6 30 8 71 8 255 68 349 115 31 15 57 25 57 21 0 -4 4 -2 8 5 4 6 14 13 22 15
8 2 19 7 25 11 5 4 44 29 85 55 71 44 87 56 125 90 8 7 15 11 15 9 0 -14 239
216 311 298 46 53 179 236 180 248 12 103 -7 152 -73 191 -80 45 -169 20 -226
-64 -19 -27 -41 -58 -50 -68 -10 -11 -27 -33 -40 -49 -42 -55 -106 -126 -177
-195 -77 -75 -222 -187 -242 -188 -7 0 -13 -4 -13 -8 0 -13 -179 -99 -275
-131 -80 -27 -146 -43 -182 -44 -7 0 -13 -3 -13 -7 0 -4 -12 -7 -27 -8 -16 0
-30 -1 -33 -2 -31 -12 -337 -17 -435 -7 -96 10 -160 19 -169 25 -5 3 -21 6
-35 8 -45 5 -215 55 -249 73 -11 6 -22 7 -26 4 -3 -3 -6 -2 -6 4 0 5 -19 15
-42 22 -44 14 -188 91 -278 149 -242 159 -480 423 -608 677 -52 105 -103 225
-95 225 3 0 0 7 -7 15 -7 8 -10 15 -6 15 4 0 -1 14 -9 31 -9 17 -14 37 -11 44
3 8 1 15 -4 17 -4 2 -10 17 -13 35 -3 17 -7 35 -10 40 -3 4 -8 30 -11 57 -4
27 -9 52 -11 55 -16 28 -27 363 -13 461 4 30 9 73 12 95 2 22 10 64 16 93 7
30 13 59 14 65 2 7 9 32 16 57 7 25 15 51 16 59 5 24 78 205 95 236 10 17 30
55 45 85 15 30 32 60 36 65 5 6 23 33 40 60 18 28 35 52 38 55 3 3 25 32 50
65 58 77 221 240 297 297 32 23 60 45 63 48 12 14 170 110 179 110 6 0 11 5
11 10 0 6 4 10 9 10 5 0 47 18 94 40 47 22 91 41 99 42 7 2 15 5 18 8 7 8 207
68 249 75 19 3 37 8 41 10 3 2 33 7 65 10 33 4 79 10 103 15 23 4 45 4 48 -1
3 -5 12 -5 22 0 18 9 204 7 312 -4 36 -3 106 -15 155 -26 50 -11 99 -22 110
-24 23 -5 156 -50 200 -68 121 -49 368 -192 418 -241 9 -9 18 -16 20 -16 20 0
287 -267 287 -287 0 -7 4 -13 9 -13 13 0 124 -166 176 -264 82 -154 157 -367
179 -510 4 -21 8 -42 11 -46 14 -22 17 -232 20 -1081 2 -898 3 -937 21 -965
37 -56 81 -84 139 -86 38 -1 115 31 115 49 0 7 4 13 10 13 5 0 17 17 25 37 14
32 15 148 12 992 -2 526 -7 974 -10 996 -4 22 -9 58 -13 80 -3 22 -8 51 -10
65 -13 78 -69 284 -94 345 -8 17 -30 73 -54 135 -3 8 -30 60 -59 115 -46 86
-83 146 -164 265 -59 87 -228 270 -331 358 -104 89 -272 205 -368 254 -27 14
-67 36 -87 47 -20 11 -40 21 -45 22 -9 2 -66 26 -107 43 -27 12 -158 58 -177
62 -5 1 -11 3 -15 4 -5 1 -12 3 -18 4 -48 9 -92 20 -100 25 -5 3 -14 6 -20 7
-29 5 -86 13 -130 20 -27 3 -59 9 -70 11 -24 6 -423 12 -429 6z"/>
<path d="M7895 4292 c-2 -2 -17 -5 -32 -7 -30 -3 -107 -13 -162 -21 -19 -3
-45 -10 -59 -15 -14 -5 -27 -7 -30 -4 -3 2 -11 0 -19 -7 -7 -6 -16 -8 -20 -5
-3 4 -15 1 -26 -4 -11 -6 -34 -13 -51 -16 -17 -3 -35 -8 -41 -13 -5 -4 -25
-11 -44 -15 -35 -7 -85 -28 -189 -76 -35 -16 -67 -29 -72 -29 -6 0 -10 -5 -10
-11 0 -5 -4 -7 -10 -4 -5 3 -10 1 -10 -4 0 -6 -3 -10 -7 -9 -18 6 -255 -147
-343 -221 -129 -108 -238 -218 -320 -321 -28 -36 -57 -72 -64 -80 -29 -36 -76
-109 -76 -118 0 -5 -7 -15 -15 -22 -8 -7 -25 -33 -37 -59 -13 -25 -25 -48 -28
-51 -9 -9 -50 -97 -50 -108 0 -6 -5 -12 -10 -14 -6 -2 -12 -13 -13 -26 0 -12
-5 -22 -9 -22 -4 0 -7 -3 -6 -7 1 -5 -3 -17 -9 -28 -6 -11 -11 -23 -12 -28 0
-4 -7 -22 -14 -40 -8 -17 -17 -45 -22 -62 -5 -16 -9 -32 -10 -35 -9 -30 -28
-99 -32 -115 -2 -11 -5 -24 -7 -30 -36 -141 -50 -273 -50 -480 1 -200 7 -272
39 -425 21 -105 25 -123 31 -132 3 -4 7 -17 10 -28 2 -11 6 -28 8 -37 2 -10
16 -49 30 -88 15 -38 28 -74 29 -80 6 -26 161 -325 168 -325 5 0 9 -6 9 -13 0
-12 107 -158 180 -247 63 -75 159 -169 284 -275 36 -30 98 -76 151 -109 33
-21 71 -46 85 -56 50 -33 247 -128 340 -163 124 -47 233 -77 355 -99 33 -5 67
-12 75 -15 44 -15 459 -25 540 -13 122 18 147 22 190 31 105 23 176 42 188 51
6 6 12 8 12 5 0 -17 265 107 365 172 154 99 392 320 503 466 4 6 28 37 52 70
24 33 48 63 53 66 5 3 8 8 7 10 -1 2 3 17 9 32 41 108 -44 220 -162 212 -63
-4 -85 -20 -159 -117 -172 -227 -292 -344 -469 -460 -81 -52 -178 -103 -209
-110 -8 -2 -18 -7 -21 -11 -3 -4 -16 -9 -27 -10 -12 -1 -22 -4 -22 -7 0 -11
-249 -72 -262 -64 -4 3 -8 2 -8 -3 0 -26 -513 -19 -580 7 -3 1 -9 3 -15 4 -14
2 -99 19 -105 21 -3 1 -18 5 -35 9 -16 4 -36 9 -43 12 -7 2 -14 4 -17 4 -3 0
-25 9 -50 20 -25 11 -49 20 -53 21 -62 14 -323 148 -359 184 -8 8 -18 15 -23
15 -5 0 -15 6 -22 12 -7 7 -40 33 -72 58 -95 72 -246 227 -324 332 -40 54 -72
102 -72 108 0 5 -4 10 -9 10 -15 0 -150 284 -186 390 -65 198 -90 356 -89 570
0 99 7 214 14 230 1 3 2 9 1 14 -2 7 6 50 33 181 18 87 116 343 148 384 10 13
18 32 18 42 0 9 3 19 8 21 4 2 25 32 47 68 21 36 43 70 47 75 5 6 29 37 54 70
25 33 49 62 55 63 5 2 9 8 9 14 0 14 181 190 250 243 155 119 359 229 530 285
156 51 157 51 270 70 111 18 168 22 300 23 180 1 225 -4 440 -49 32 -6 175
-52 220 -71 137 -56 353 -179 442 -251 129 -106 212 -189 322 -322 43 -53 142
-212 187 -302 52 -104 132 -324 123 -339 -3 -5 0 -9 6 -9 6 0 8 -5 5 -10 -4
-6 -1 -17 5 -25 7 -8 10 -15 7 -15 -3 0 -1 -18 4 -40 11 -47 17 -86 25 -155 4
-27 8 -468 9 -980 2 -511 4 -932 5 -935 1 -3 3 -9 4 -15 5 -39 67 -102 105
-108 11 -2 23 -6 26 -9 3 -3 20 -2 38 2 18 4 35 6 39 6 4 -1 16 7 27 16 11 9
21 15 23 13 2 -3 16 15 31 38 l28 42 -4 975 c-2 536 -6 986 -10 1000 -3 14 -8
43 -11 65 -2 22 -7 51 -10 65 -3 14 -8 36 -10 50 -7 40 -17 80 -39 155 -11 39
-22 75 -23 80 -8 32 -49 137 -69 178 -13 26 -23 47 -20 47 7 0 -116 222 -150
270 -19 27 -35 52 -35 56 0 3 -6 11 -12 18 -7 7 -24 28 -38 46 -117 158 -317
351 -464 449 -28 19 -53 37 -56 40 -12 14 -182 110 -194 109 -5 0 -12 4 -15 9
-7 10 -74 48 -81 46 -5 -1 -24 6 -95 37 -16 8 -33 14 -37 16 -5 1 -10 3 -13 4
-3 1 -8 3 -12 5 -5 1 -15 4 -23 8 -28 11 -115 36 -135 39 -11 2 -22 6 -25 9
-5 5 -166 38 -225 46 -16 2 -48 6 -70 9 -48 7 -433 12 -440 6z"/>
</g>
</svg>
